<?xml version="1.0" encoding="utf-8"?>
<!-- Generator: Adobe Illustrator 16.0.0, SVG Export Plug-In . SVG Version: 6.00 Build 0)  -->
<!DOCTYPE svg PUBLIC "-//W3C//DTD SVG 1.1//EN" "http://www.w3.org/Graphics/SVG/1.1/DTD/svg11.dtd">
<svg version="1.1" xmlns="http://www.w3.org/2000/svg" xmlns:xlink="http://www.w3.org/1999/xlink" x="0px" y="0px" width="543px"
	 height="410px" viewBox="0 0 543 410" enable-background="new 0 0 543 410" xml:space="preserve">
<g id="Layer_3">
</g>
<g id="wall">
	<polygon fill="#2F2F75" points="628.875,39.731 547.021,399.522 439,291.585 439,73.094 598.699,-86.522 	"/>
</g>
<g id="man">
	<path fill="#232357" d="M122.833,216.76c0,0,2.667,85.24-3.167,102.24H132l-4.333-2.019l18.167-97.667l1.333,1.26L163.333,320H173
		l-3.167-2.352l1.5-99.167L122.833,216.76z"/>
	<path fill="#2F2F75" d="M198.496,168.012c0,0,0.496-3.988-2.504-4.988s-7.758,9.773-10.008,14.023s-1.766,0.047-1.766,0.047
		s-3.858-29.156-5.858-35.906c-1.814-6.125-28.36-6.744-33.36-6.806v-0.007c0,0-0.249,0-0.5,0.002c-0.251-0.002-0.5-0.002-0.5-0.002
		v0.007c-5,0.062-31.281,0.681-33.096,6.806c-2,6.75-5.688,35.906-5.688,35.906s0.531,4.203-1.719-0.047s-6.984-15.023-9.984-14.023
		s-2.492,4.988-2.492,4.988l-0.027,2.994c0,0,8.283,11.997,10.783,19.747s11.5,3.624,10.5-6.626L116.279,222H142h5.529h25.721
		l4-37.873c-1,10.25,8,14.376,10.5,6.626s10.78-19.747,10.78-19.747L198.496,168.012z"/>
	<path fill="#F3D4D5" d="M193.652,163.666c0,0,0.285,6.022,11.035,7.959l4.313-2.688V168c0,0-7.5-1.75-7.063-2.625
		s3.563-0.813,3.563-0.813l0.875-1.375C206.375,163.188,193.555,160.894,193.652,163.666z"/>
	<path fill="#F3D4D5" d="M94,163.666c0,0-0.111,6.022-10.861,7.959L79,168.938V168c0,0,7.326-1.75,6.889-2.625
		s-3.649-0.813-3.649-0.813l-0.918-1.375C81.321,163.188,94.098,160.894,94,163.666z"/>
	<path fill="#F3D4D5" d="M137.297,138.134l0.62-18.694c0,0-2.417,1.083-2.25-1.167s0.917-3.583,2.667-2.833
		c0,0,0.583-11.167,11.667-6.417s2.363,28.023,2.363,28.023L148.833,142l-3.192,1.023L140.083,142l-1.75-3.06L137.297,138.134z"/>
	<path fill="#FFFFFF" d="M135.333,136.321c0,0,6.333,3.167,7.333,6.667c0,0-3.417-0.191-3.667,2.893
		C139,145.88,140.083,139.322,135.333,136.321z"/>
	<path fill="#FFFFFF" d="M153.667,136.321c0,0-6.333,3.167-7.333,6.667c0,0,3.417-0.191,3.667,2.893
		C150,145.88,148.917,139.322,153.667,136.321z"/>
	<polygon fill="#FFFFFF" points="142.986,143.4 143.764,142 146,142 146.333,142.811 145.93,145 144,145 	"/>
	<polygon fill="#FFFFFF" points="144,145 140.43,192.539 147.18,204.205 153.097,191.539 145.93,145 	"/>
	<path fill="#3D3535" d="M143,117.75c0,0,4.59,0.583,5.257-1.667l0.503,0.5c0,0-1.76,2.417-5.76,1.917V117.75z"/>
	<path fill="#3D3535" d="M156,115.75c0,0-4.71,0.583-5.377-1.667l-0.443,0.5c0,0,1.82,2.417,5.82,1.917V115.75z"/>
	<path fill="#3D3535" d="M150.18,123.75c0,0-6.064,0.12-4.539,1.685s5.108,1.649,6.025,1.232S153.04,123.491,150.18,123.75z"/>
	<path fill="#3D3535" d="M150,119c0,0-3,4,0,4C152,123,150,119,150,119z"/>
	<path fill="#3D3535" d="M138.333,115.44c0,0,0.583,3.199,1.417,1.886s2.25-5.48,6.583-5.647s7.167,2.75,9.667,1.583
		s-2.417-10.5-13-7.417S138.333,115.44,138.333,115.44z"/>
</g>
</svg>
