<?xml version="1.0" encoding="utf-8"?>
<!-- Generator: Adobe Illustrator 16.0.0, SVG Export Plug-In . SVG Version: 6.00 Build 0)  -->
<!DOCTYPE svg PUBLIC "-//W3C//DTD SVG 1.1//EN" "http://www.w3.org/Graphics/SVG/1.1/DTD/svg11.dtd">
<svg version="1.1" xmlns="http://www.w3.org/2000/svg" xmlns:xlink="http://www.w3.org/1999/xlink" x="0px" y="0px" width="120px"
	 height="120px" viewBox="0 0 120 120" enable-background="new 0 0 120 120" xml:space="preserve">
<g id="Layer_1" display="none">
	
		<image display="inline" overflow="visible" width="580" height="386" xlink:href="71197E2E.jpg"  transform="matrix(1.1603 0 0 1.1603 -85.75 -6.75)">
	</image>
</g>
<g id="Layer_2">
	<g>
		<rect x="25" y="31" fill="none" stroke="#FFFFFF" stroke-width="2" stroke-miterlimit="10" width="51" height="62"/>
		<path fill="none" stroke="#FFFFFF" stroke-width="2" stroke-miterlimit="10" d="M76.039,32c0-2.468,2-4,4.469-4
			s4.531,1.532,4.531,4"/>
		<line fill="none" stroke="#FFFFFF" stroke-width="2" stroke-miterlimit="10" x1="85" y1="32" x2="85" y2="81"/>
		<path fill="none" stroke="#FFFFFF" stroke-width="2" stroke-miterlimit="10" d="M94.039,81c0,2.469-2.063,3.938-4.531,3.938
			S85.039,83.469,85.039,81"/>
		<polyline fill="none" stroke="#FFFFFF" stroke-width="2" stroke-miterlimit="10" points="94,81 94,60 85,60 		"/>
		<line fill="none" stroke="#FFFFFF" stroke-width="2" stroke-miterlimit="10" x1="89.508" y1="84.938" x2="76.039" y2="85"/>
		<line fill="none" stroke="#FFFFFF" stroke-width="2" stroke-miterlimit="10" x1="65" y1="39" x2="34" y2="39"/>
		<line fill="none" stroke="#FFFFFF" stroke-width="2" stroke-miterlimit="10" x1="65" y1="48" x2="34" y2="48"/>
		<line fill="none" stroke="#FFFFFF" stroke-width="2" stroke-miterlimit="10" x1="65" y1="57" x2="45" y2="57"/>
		<line fill="none" stroke="#FFFFFF" stroke-width="2" stroke-miterlimit="10" x1="65" y1="66" x2="34" y2="66"/>
		<line fill="none" stroke="#FFFFFF" stroke-width="2" stroke-miterlimit="10" x1="65" y1="75" x2="50" y2="75"/>
		<line fill="none" stroke="#FFFFFF" stroke-width="2" stroke-miterlimit="10" x1="48" y1="75" x2="34" y2="75"/>
		<line fill="none" stroke="#FFFFFF" stroke-width="2" stroke-miterlimit="10" x1="65" y1="84" x2="42" y2="84"/>
		<line fill="none" stroke="#FFFFFF" stroke-width="2" stroke-miterlimit="10" x1="43" y1="57" x2="34" y2="57"/>
		<line fill="none" stroke="#FFFFFF" stroke-width="2" stroke-miterlimit="10" x1="80" y1="28" x2="27" y2="28"/>
		<path fill="none" stroke="#FFFFFF" stroke-width="2" stroke-miterlimit="10" d="M25.039,32c0-3.675-0.728-4,4.083-4"/>
	</g>
</g>
</svg>
