<?xml version="1.0" encoding="utf-8"?>
<!-- Generator: Adobe Illustrator 16.0.0, SVG Export Plug-In . SVG Version: 6.00 Build 0)  -->
<!DOCTYPE svg PUBLIC "-//W3C//DTD SVG 1.1//EN" "http://www.w3.org/Graphics/SVG/1.1/DTD/svg11.dtd">
<svg version="1.1" id="Layer_1" xmlns="http://www.w3.org/2000/svg" xmlns:xlink="http://www.w3.org/1999/xlink" x="0px" y="0px"
	 width="120px" height="120px" viewBox="0 0 120 120" enable-background="new 0 0 120 120" xml:space="preserve">
<g>
	<circle fill="none" stroke="#FFFFFF" stroke-width="2" stroke-miterlimit="10" cx="87.56" cy="56.272" r="13.415"/>
	<path fill="none" stroke="#FFFFFF" stroke-width="2" stroke-miterlimit="10" d="M98.844,63.715
		c-2.406,3.599-6.567,5.972-11.221,5.972c-4.528,0-8.68-2.251-11.109-5.687C69.27,67.19,64,74.905,64,83.923V103h48V83.923
		C112,74.627,106.444,66.713,98.844,63.715z"/>
	<line fill="none" stroke="#FFFFFF" stroke-width="2" stroke-miterlimit="10" x1="101" y1="103" x2="101" y2="86"/>
	<line fill="none" stroke="#FFFFFF" stroke-width="2" stroke-miterlimit="10" x1="74" y1="103" x2="74" y2="86"/>
</g>
<g>
	<circle fill="none" stroke="#FFFFFF" stroke-width="2" stroke-miterlimit="10" cx="33.56" cy="56.272" r="13.415"/>
	<path fill="none" stroke="#FFFFFF" stroke-width="2" stroke-miterlimit="10" d="M44.844,63.715
		c-2.406,3.599-6.567,5.972-11.221,5.972c-4.528,0-8.68-2.251-11.109-5.687C15.27,67.19,10,74.905,10,83.923V103h48V83.923
		C58,74.627,52.444,66.713,44.844,63.715z"/>
	<line fill="none" stroke="#FFFFFF" stroke-width="2" stroke-miterlimit="10" x1="47" y1="103" x2="47" y2="86"/>
	<line fill="none" stroke="#FFFFFF" stroke-width="2" stroke-miterlimit="10" x1="20" y1="103" x2="20" y2="86"/>
</g>
<circle fill="none" stroke="#FFFFFF" stroke-width="2" stroke-miterlimit="10" cx="59.56" cy="28.272" r="13.415"/>
<path fill="none" stroke="#FFFFFF" stroke-width="2" stroke-miterlimit="10" d="M80.971,44.595
	c-2.358-4.062-5.928-7.224-10.127-8.88c-2.406,3.599-6.567,5.972-11.221,5.972c-4.528,0-8.68-2.251-11.109-5.687
	c-3.747,1.65-6.958,4.518-9.192,8.144"/>
<line fill="none" stroke="#FFFFFF" stroke-width="2" stroke-miterlimit="10" x1="58" y1="87" x2="64" y2="87"/>
</svg>
