<?xml version="1.0" encoding="utf-8"?>
<!-- Generator: Adobe Illustrator 16.0.0, SVG Export Plug-In . SVG Version: 6.00 Build 0)  -->
<!DOCTYPE svg PUBLIC "-//W3C//DTD SVG 1.1//EN" "http://www.w3.org/Graphics/SVG/1.1/DTD/svg11.dtd">
<svg version="1.1" id="Layer_1" xmlns="http://www.w3.org/2000/svg" xmlns:xlink="http://www.w3.org/1999/xlink" x="0px" y="0px"
	 width="120px" height="120px" viewBox="0 0 120 120" enable-background="new 0 0 120 120" xml:space="preserve">
<g>
	<path stroke="#FFFFFF" stroke-miterlimit="10" d="M55.172,29.018l0.328-0.091v6.311l-0.347,0.026 M54.5,34v-4"/>
</g>
<g>
	<path fill="none" stroke="#FFFFFF" stroke-width="2" stroke-miterlimit="10" d="M64,28.625c0,0,27.25-1.313,35.375,19.313l-1,0.438
		c0,0-14.375-14.25-34.375-12.313V28.625z"/>
	<line fill="none" stroke="#FFFFFF" stroke-width="2" stroke-miterlimit="10" x1="98.75" y1="48.375" x2="87.25" y2="68.5"/>
	<line fill="none" stroke="#FFFFFF" stroke-width="2" stroke-miterlimit="10" x1="99.625" y1="47.938" x2="112" y2="68.5"/>
	<path fill="none" stroke="#FFFFFF" stroke-width="2" stroke-miterlimit="10" d="M99.625,81.375C106.46,81.375,112,75,112,69H87.25
		C87.25,75,92.79,81.375,99.625,81.375z"/>
</g>
<g>
	<path fill="none" stroke="#FFFFFF" stroke-width="2" stroke-miterlimit="10" d="M55,28.625c0,0-26.5-1.313-34.625,19.313L21,48.375
		c0,0,15-14.25,34-12.313V28.625z"/>
	<line fill="none" stroke="#FFFFFF" stroke-width="2" stroke-miterlimit="10" x1="21.75" y1="48.375" x2="33.25" y2="68.5"/>
	<line fill="none" stroke="#FFFFFF" stroke-width="2" stroke-miterlimit="10" x1="20.875" y1="47.938" x2="8.5" y2="68.5"/>
	<path fill="none" stroke="#FFFFFF" stroke-width="2" stroke-miterlimit="10" d="M20.875,81.375C14.04,81.375,8.5,75,8.5,69h24.75
		C33.25,75,27.71,81.375,20.875,81.375z"/>
</g>
<rect x="55" y="22" fill="none" stroke="#FFFFFF" stroke-width="2" stroke-miterlimit="10" width="9" height="68"/>
<circle fill="none" stroke="#FFFFFF" stroke-width="2" stroke-miterlimit="10" cx="59.5" cy="32.11" r="4.5"/>
<rect x="39" y="90" fill="none" stroke="#FFFFFF" stroke-width="2" stroke-miterlimit="10" width="42" height="10"/>
</svg>
